<?xml version="1.0" standalone="no"?>
<!DOCTYPE svg PUBLIC "-//W3C//DTD SVG 20010904//EN"
 "http://www.w3.org/TR/2001/REC-SVG-20010904/DTD/svg10.dtd">
<svg version="1.0" xmlns="http://www.w3.org/2000/svg"
 width="700.000000pt" height="700.000000pt" viewBox="0 0 700.000000 700.000000"
 preserveAspectRatio="xMidYMid meet">
<metadata>
Created by potrace 1.14, written by Peter Selinger 2001-2017
</metadata>
<g transform="translate(0.000000,700.000000) scale(0.100000,-0.100000)"
fill="#000000" stroke="none">
<path d="M3050 6984 c-440 -81 -799 -272 -1106 -585 -491 -503 -694 -1158
-599 -1942 15 -126 17 -134 60 -327 28 -125 47 -194 78 -282 16 -49 23 -58 43
-58 13 0 24 3 24 6 0 4 -18 62 -39 129 -48 148 -86 314 -112 490 -26 168 -36
489 -20 650 39 406 178 768 416 1090 316 428 767 700 1314 792 85 15 162 18
396 18 310 -1 380 -8 586 -60 570 -145 1035 -525 1313 -1074 215 -425 278
-932 185 -1486 -25 -149 -69 -332 -109 -449 -16 -50 -30 -93 -30 -98 0 -4 11
-8 24 -8 18 0 27 9 40 43 9 23 16 47 16 53 0 6 9 40 21 75 12 35 23 73 25 84
2 11 15 70 29 130 57 242 86 612 66 845 -35 412 -146 744 -354 1056 -95 143
-146 206 -270 333 -278 283 -624 473 -1027 562 -99 22 -127 24 -500 25 -301 2
-413 -1 -470 -12z"/>
<path d="M2261 4619 c-103 -17 -218 -77 -316 -164 l-40 -35 65 34 c195 104
321 107 617 11 213 -68 288 -85 409 -92 118 -6 154 2 154 36 0 27 -50 66 -107
85 -79 26 -497 115 -590 126 -100 11 -117 11 -192 -1z"/>
<path d="M4535 4619 c-81 -9 -507 -102 -578 -125 -57 -19 -107 -58 -107 -85 0
-34 36 -42 154 -36 121 7 196 24 409 92 296 96 422 93 617 -11 l65 -34 -40 35
c-105 93 -209 146 -327 165 -70 11 -92 11 -193 -1z"/>
<path d="M2285 4292 c-98 -21 -144 -47 -168 -92 -47 -90 49 -253 188 -320 136
-66 330 -67 570 -3 89 24 89 34 0 12 -41 -9 -101 -21 -133 -25 l-57 -6 30 23
c17 13 36 30 43 39 44 51 58 161 29 220 -9 16 -13 30 -10 30 3 0 33 -14 67
-30 78 -39 149 -99 171 -147 16 -33 19 -35 25 -18 23 66 -80 188 -213 251
-155 73 -383 101 -542 66z m162 -100 c-86 -89 -65 -245 40 -313 26 -16 42 -29
37 -29 -32 0 -173 44 -209 64 -92 54 -171 177 -145 226 22 41 135 76 254 79
l50 1 -27 -28z m295 -13 c35 -19 34 -85 0 -97 -8 -2 -10 3 -5 14 5 13 3 16 -9
11 -12 -4 -14 -1 -10 15 6 23 -4 20 -43 -11 -11 -9 -7 -2 8 15 l28 31 -33 22
-33 22 40 -6 c22 -4 48 -11 57 -16z m-198 -45 c3 -8 2 -12 -4 -9 -6 3 -10 10
-10 16 0 14 7 11 14 -7z m-34 -34 c8 -5 11 -10 5 -10 -5 0 -17 5 -25 10 -8 5
-10 10 -5 10 6 0 17 -5 25 -10z m210 -24 c0 -2 -9 -6 -20 -9 -11 -3 -18 -1
-14 4 5 9 34 13 34 5z m-217 -33 c-7 -2 -19 -2 -25 0 -7 3 -2 5 12 5 14 0 19
-2 13 -5z m204 -19 c-3 -3 -12 -4 -19 -1 -8 3 -5 6 6 6 11 1 17 -2 13 -5z
m-178 -18 c-2 -2 -15 -9 -29 -15 -24 -11 -24 -11 -6 3 16 13 49 24 35 12z
m162 -33 c13 -15 12 -15 -8 -4 -24 12 -29 21 -14 21 5 0 15 -7 22 -17z m-125
-5 c4 -7 3 -10 -1 -5 -5 4 -17 -1 -28 -10 -19 -18 -19 -17 -6 5 16 25 25 28
35 10z m77 -9 c-4 -15 -8 -17 -14 -8 -6 11 4 28 18 29 0 0 -1 -9 -4 -21z m-56
-26 c-3 -10 -5 -4 -5 12 0 17 2 24 5 18 2 -7 2 -21 0 -30z m-76 -3 c12 0 11
-27 -1 -35 -14 -9 -40 13 -40 32 0 10 6 13 16 9 9 -3 20 -6 25 -6z"/>
<path d="M4405 4299 c-184 -24 -346 -105 -422 -212 -37 -52 -47 -81 -38 -115
6 -26 7 -26 24 14 24 53 99 117 185 159 70 34 89 37 68 12 -6 -7 -15 -33 -21
-57 -19 -86 17 -175 92 -224 l40 -25 -39 5 c-22 4 -83 15 -138 25 -54 11 -100
18 -103 15 -13 -12 232 -59 337 -64 132 -5 199 6 288 48 147 69 241 237 185
330 -46 78 -243 116 -458 89z m121 -98 c17 -11 36 -33 42 -50 9 -25 8 -34 -8
-53 -11 -13 -19 -17 -20 -10 0 6 -7 12 -15 12 -8 0 -14 3 -14 8 4 21 -3 23
-21 7 -11 -10 -20 -13 -20 -7 0 6 5 14 10 17 6 3 10 11 10 17 0 6 -10 3 -22
-8 l-21 -19 17 27 c17 26 14 54 -5 43 -5 -4 -9 3 -9 14 0 27 34 28 76 2z m132
9 c86 -14 150 -46 158 -77 17 -66 -54 -168 -154 -221 -48 -26 -182 -68 -182
-57 0 1 18 14 40 29 99 65 115 222 33 308 l-27 28 35 0 c19 0 63 -5 97 -10z
m-343 -118 c-3 -3 -11 0 -18 7 -9 10 -8 11 6 5 10 -3 15 -9 12 -12z m215 -16
c0 -2 -9 -6 -20 -9 -11 -3 -20 -1 -20 4 0 5 9 9 20 9 11 0 20 -2 20 -4z m-217
-33 c-7 -2 -21 -2 -30 0 -10 3 -4 5 12 5 17 0 24 -2 18 -5z m194 -19 c-3 -3
-12 -4 -19 -1 -8 3 -5 6 6 6 11 1 17 -2 13 -5z m-178 -18 c-2 -2 -15 -9 -29
-15 -24 -11 -24 -11 -6 3 16 13 49 24 35 12z m162 -33 c13 -17 13 -17 -6 -3
-11 8 -22 16 -24 17 -2 2 0 3 6 3 6 0 17 -8 24 -17z m-125 -5 c4 -7 4 -10 -1
-6 -4 4 -14 3 -22 -4 -11 -8 -12 -7 -7 6 7 19 20 21 30 4z m25 -34 c-9 -28 -9
-29 -10 -3 -1 14 2 29 6 32 11 12 13 2 4 -29z m-73 0 c5 3 8 -5 7 -17 -2 -27
-27 -34 -45 -13 -17 22 -5 53 15 36 8 -6 18 -9 23 -6z"/>
<path d="M4751 981 c-12 -16 -21 -34 -21 -39 0 -5 -31 -41 -69 -79 -185 -188
-466 -305 -871 -364 -127 -18 -481 -16 -615 5 -313 48 -562 140 -745 276 -71
54 -190 172 -190 190 0 31 -59 15 -255 -70 -195 -85 -245 -99 -513 -140 -139
-22 -299 -49 -355 -60 -333 -67 -577 -163 -744 -291 -117 -91 -260 -272 -302
-382 l-11 -27 3420 0 c1881 0 3420 3 3420 6 0 17 -90 165 -142 235 -129 172
-321 307 -552 388 -180 64 -350 97 -786 156 -107 14 -220 34 -250 45 -30 11
-127 56 -214 100 -88 44 -165 80 -172 80 -7 0 -22 -13 -33 -29z"/>
</g>
</svg>
